<svg width="856" height="205" viewBox="0 0 856 205" fill="none" xmlns="http://www.w3.org/2000/svg">
<g clip-path="url(#clip0_111_665)">
<path d="M0 20C0 8.95431 8.95431 0 20 0H836C847.046 0 856 8.9543 856 20V185C856 196.046 847.046 205 836 205H20C8.9543 205 0 196.046 0 185V20Z" fill="white"/>
<path d="M0 205L856 205V0L0 0V205Z" fill="url(#paint0_linear_111_665)"/>
<path d="M695.616 148.8C695.616 148.8 687.782 150.366 689.334 151.71C690.885 153.052 692.67 151.189 694.764 152.755C696.857 154.321 683.284 153.95 674.908 157.456C666.533 160.962 664.137 161.419 665.833 165.439C666.209 166.331 667.078 166.203 663.042 168.199C662.259 168.587 660.328 169.99 661.722 171.332C663.117 172.673 668.859 170.137 670.021 171.706C671.185 173.272 670.395 177.112 664.823 175.586C664.049 175.375 662.713 175.744 661.992 177.059C659.196 182.171 642.551 176.249 637.968 177.059C633.393 177.869 627.381 180.359 619.47 178.962C619.47 178.962 619.761 177.62 617.782 177.898C615.805 178.178 609.465 178.905 608.706 179.801C607.95 180.696 605.624 182.823 615.106 186.012C624.587 189.2 633.067 189.334 630.928 191.439C630.423 191.937 629.958 191.701 633.177 193.193C636.395 194.684 628.425 199.719 624.064 200.895C619.702 202.071 604.868 202.071 601.551 202.236C598.237 202.405 586.776 204.642 575.724 203.132C564.672 201.622 555.073 200.67 554.55 201.9C554.026 203.129 560.134 206.544 548.092 208.444C548.092 208.444 534.19 206.935 532.328 210.46C530.467 213.985 521.8 212.753 521.8 212.753C521.8 212.753 528.082 214.989 534.131 212.194C540.181 209.396 543.03 211.635 548.383 210.796C553.735 209.957 557.573 210.403 558.852 207.552C560.132 204.698 566.937 206.619 577.174 206.918C587.412 207.218 596.332 206.023 602.072 205.799C607.812 205.574 620.065 205.203 625.418 204.307C630.77 203.412 643.526 198.685 640.93 195.133C639.784 193.567 632.546 191.423 634.958 190.06C636.168 189.376 640.604 187.115 631.312 185.958C626.74 185.389 614.692 186.819 613.164 182.826C613.164 182.826 614.251 179.619 624.178 180.811C624.178 180.811 637.557 180.084 645.003 180.196C652.449 180.308 669.396 182.155 672.342 181.781C672.342 181.781 673.739 181.407 671.8 179.691C669.86 177.975 674.903 175.14 678.624 175.215C682.347 175.29 689.016 175.736 689.481 174.469C689.945 173.2 682.579 169.993 682.267 167.307C681.957 164.621 687.269 160.257 695.8 159.1" fill="#FBF8F3"/>
<path d="M841.553 2.4363C841.553 2.4363 793.577 -2.83884 799.599 4.49307C805.62 11.825 816.169 8.26826 785.906 15.8959C781.989 16.8843 788.251 15.006 788.482 24.2082C788.56 27.2108 787.334 25.8121 773.186 24.3628C759.037 22.9134 738.963 23.2118 735.902 28.2791C732.843 33.3465 735.75 35.5311 761.523 38.6882C767.705 39.4449 782.173 43.3959 774.526 49.0973C766.879 54.7987 695.562 46.2919 682.367 49.0973C682.367 49.0973 640.78 52.0386 657.225 60.4548C657.225 60.4548 689.441 65.0266 680.073 73.2617C670.705 81.4968 581.893 85.6609 581.32 91.7699C581.32 91.7699 577.016 94.6207 586.052 99.4402C595.087 104.26 580.795 108.107 576.731 108.197C572.769 108.285 563.79 110.987 547.004 114C547.004 114 545.975 111.45 577.379 109.482C608.782 107.513 577.075 100.037 583.241 95.4199C589.406 90.8028 604.189 93.9279 607.487 90.3978C610.786 86.8678 606.416 90.6856 650.295 89.8037C694.176 88.9219 699.193 86.6813 707.368 80.9106C715.542 75.1399 729.022 79.6877 736.765 75.5475C744.508 71.4073 733.037 67.6722 733.037 67.6722C733.037 67.6722 701.49 59.12 718.553 58.779C735.617 58.4407 735.188 64.4139 787.672 61.1555C787.672 61.1555 833.059 52.995 806.028 42.149C796.835 38.4591 747.543 30.3865 781.819 31.8945C790.827 32.2915 822.974 34.4175 823.216 28.7134C823.344 25.6976 813.329 22.1541 825.375 19.5059C837.421 16.8577 844.364 18.624 842.499 14.4839C840.634 10.3437 831.655 7.67148 839.398 4.77549C839.398 4.77549 834.985 4.18935 841.556 2.43097L841.553 2.4363Z" fill="url(#paint1_radial_111_665)"/>
<path d="M856 0.00267109C856 0.00267109 827.612 -0.194779 834.023 6.89272C840.434 13.9802 851.661 10.5405 819.448 17.9162C815.28 18.8715 817.443 18.8422 822.19 25.9537C823.283 27.5895 823.003 30.33 807.944 28.929C792.884 27.5281 769.48 24.9904 766.224 29.8924C762.967 34.7917 766.061 36.9052 793.495 39.9553C800.076 40.6864 815.475 44.505 807.333 50.0181C799.191 55.5312 723.282 47.3043 709.238 50.0181C709.238 50.0181 664.974 52.8627 682.477 60.9989C682.477 60.9989 716.77 65.418 706.796 73.3807C696.824 81.3435 602.29 85.3676 601.679 91.2756C601.679 91.2756 589.777 92.9701 599.394 97.6292C609.01 102.288 598.039 104.823 593.713 104.912C589.388 105 544.289 107.287 536.2 121.2C536.2 121.2 540.016 113.325 573.443 111.423C606.869 109.52 607.269 104.519 613.832 100.058C620.395 95.5959 613.128 96.722 616.64 93.309C620.152 89.896 628.393 90.2242 675.1 89.3703C721.807 88.5164 727.149 86.3522 735.848 80.7724C744.547 75.1953 758.895 79.5903 767.138 75.5876C775.381 71.5848 763.17 67.9744 763.17 67.9744C763.17 67.9744 729.589 59.7047 747.753 59.3765C765.917 59.0483 765.458 64.8229 821.323 61.674C821.323 61.674 869.636 53.786 840.861 43.2989C831.076 39.7338 761.333 29.831 797.818 31.288C807.405 31.6723 836.023 37.655 836.282 32.1419C836.418 29.2279 821.019 23.0851 833.839 20.526C846.661 17.9669 856.886 17.1797 854.902 13.177C852.917 9.17423 836.738 6.35102 844.981 3.55177C844.981 3.55177 849.005 1.69983 855.998 0L856 0.00267109Z" fill="#FBF8F3"/>
<path d="M796.597 86.8811C796.597 86.8811 770.804 81.8098 756.618 89.2832C742.432 96.7567 776.286 99.9596 773.385 102.896C770.483 105.832 766.942 108.554 742.918 108.768C718.894 108.981 565.253 107.617 566.401 122.38C566.753 126.931 563.214 130.734 587.195 136.526C594.429 138.272 604.123 143.199 563.014 147.736C521.908 152.274 509.818 164.018 511.753 171.224C513.688 178.431 531.098 185.371 503.049 187.506L475 189.641C475 189.641 497.729 197.648 524.812 189.641C551.895 181.634 512.721 177.943 530.132 167.509C547.542 157.078 592.518 162.149 622.018 156.277C651.519 150.405 643.235 140.202 635.801 137.06C630.776 134.935 565.435 124.515 628.307 123.715C691.178 122.914 743.566 125.885 776.048 117.175C783.156 115.27 792.007 108.634 791.523 101.961C791.04 95.2887 749.209 92.2192 772.904 89.5502C796.6 86.8811 784.512 88.2156 796.6 86.8811H796.597Z" fill="url(#paint2_radial_111_665)"/>
<path d="M818.198 91.081C818.198 91.081 792.452 86.0097 778.293 93.4832C764.133 100.957 797.924 104.16 795.028 107.096C792.132 110.032 788.597 112.754 764.618 112.968C740.639 113.181 587.285 111.817 588.431 126.58C588.782 131.131 585.25 134.934 609.186 140.726C616.406 142.472 626.082 147.399 585.05 151.936C544.021 156.474 531.953 168.218 533.884 175.424C535.816 182.631 553.193 189.571 525.197 191.706L497.2 193.841C497.2 193.841 519.887 201.848 546.919 193.841C573.952 185.834 534.851 182.142 552.229 171.709C569.606 161.278 614.498 166.349 643.944 160.477C673.39 154.605 665.121 144.401 657.702 141.26C652.685 139.135 587.466 128.715 650.221 127.915C712.975 127.114 765.265 130.084 797.687 121.375C804.781 119.469 813.615 112.834 813.133 106.161C812.651 99.4887 770.897 96.4192 794.549 93.7501C818.2 91.081 806.135 92.4156 818.2 91.081H818.198Z" fill="#FBF8F3"/>
<path d="M686.938 108.626C686.938 108.626 688.395 100.445 688.822 96.4361C689.246 92.4298 690.462 94.9798 693.255 93.4007C696.047 91.8217 699.568 79.5575 701.27 75.6712C702.969 71.785 704.671 74.7003 708.92 72.2704C713.169 69.8405 710.256 70.6913 711.227 67.7787C712.198 64.8633 713.411 66.3223 718.391 55.6344C718.391 55.6344 718.999 53.0845 720.333 49.8064C721.669 46.5283 725.19 46.6483 728.591 45.5574C731.992 44.4638 734.904 42.7648 736.363 41.0657C737.82 39.3666 740.855 39.2439 740.735 41.0657C740.615 42.8875 741.463 57.2161 742.677 59.1579C743.891 61.0997 743.891 59.7661 744.013 76.5221C744.013 76.5221 745.107 74.5803 746.198 84.6573C747.291 94.737 748.87 108.626 748.87 108.626H686.941H686.938Z" fill="url(#paint3_linear_111_665)"/>
<path d="M699.271 107.66C699.271 107.66 700.309 101.842 700.61 98.9911C700.912 96.1398 701.776 97.9535 703.763 96.8333C705.75 95.7103 708.255 86.9883 709.463 84.225C710.671 81.4616 711.883 83.5342 714.905 81.8058C717.927 80.0774 715.854 80.6828 716.545 78.6103C717.236 76.5378 718.1 77.5727 721.64 69.9736C721.64 69.9736 722.072 68.1598 723.021 65.8286C723.971 63.4974 726.475 63.5827 728.894 62.8066C731.314 62.0304 733.386 60.8194 734.421 59.6111C735.456 58.4029 737.617 58.3148 737.531 59.6111C737.446 60.9074 738.049 71.0965 738.913 72.4782C739.777 73.8598 739.777 72.9103 739.862 84.8278C739.862 84.8278 740.639 83.4461 741.417 90.6131C742.194 97.7801 743.317 107.66 743.317 107.66H699.271Z" fill="url(#paint4_linear_111_665)"/>
<path d="M700.491 108.444C700.491 108.444 701.355 103.587 701.609 101.21C701.862 98.831 702.582 100.346 704.239 99.4071C705.895 98.4709 707.986 91.1918 708.994 88.8846C710.003 86.5773 711.014 88.3085 713.534 86.8655C716.057 85.4251 714.326 85.9292 714.902 84.1982C715.479 82.4671 716.199 83.334 719.154 76.9911C719.154 76.9911 719.514 75.4788 720.306 73.5317C721.099 71.5845 723.19 71.6565 725.206 71.0083C727.225 70.3602 728.954 69.3519 729.818 68.341C730.682 67.3301 732.485 67.2608 732.413 68.341C732.341 69.4213 732.845 77.9273 733.566 79.0796C734.286 80.2318 734.286 79.4397 734.358 89.386C734.358 89.386 735.006 88.2337 735.654 94.2138C736.302 100.194 737.238 108.439 737.238 108.439H700.48L700.491 108.444Z" fill="url(#paint5_linear_111_665)"/>
<path d="M812.281 71.0024C812.64 70.6675 812.8 70.4177 812.8 70.4177C807.767 70.5187 807.259 67.9674 807.259 67.9674L805.633 68.0578V65.9371C806.352 65.8786 807.031 65.7909 807.56 65.6686C807.56 65.6686 808.692 65.1132 808.695 63.9943C805.688 65.8998 801.717 62.0889 801.03 61.3926H801.057V60.5953L801.272 60.3482L800.928 60L800.585 60.3482L800.8 60.5953V61.3926H800.826C800.139 62.0889 796.168 65.8998 793.161 63.9943C793.164 65.1132 794.296 65.6686 794.296 65.6686C794.826 65.7909 795.502 65.8759 796.223 65.9371V68.0711L794.341 67.9648C794.341 67.9648 793.84 70.4682 788.939 70.4177C788.936 70.4124 788.931 70.4045 788.928 70.3991C788.928 70.3991 788.928 70.4044 788.933 70.4177C788.889 70.4177 788.844 70.4177 788.8 70.4177C788.8 70.4177 788.96 70.6675 789.319 71.0024C789.135 70.8695 789.017 70.7526 788.939 70.6543C789.798 72.0947 792.042 72.9238 794.352 73.3968V83.3973H795.408V73.5909C795.599 73.6228 795.791 73.652 795.982 73.6786V83.4H796.766L796.941 76.9979C797.057 75.3528 798.721 74.048 800.766 74.048C802.81 74.048 804.475 75.3528 804.59 76.9979L804.8 83.4H805.584L805.623 76.9979V73.6786C805.749 73.66 805.877 73.6414 806.006 73.6228V83.4H807.062V73.4367C809.437 72.969 811.783 72.1372 812.666 70.6543C812.59 70.7499 812.47 70.8695 812.286 71.0024H812.281ZM797.639 68.1508L796.994 68.1136V65.9902C797.209 66.0035 797.424 66.0141 797.639 66.0221V68.1508ZM800.797 73.0726V68.677V73.0726ZM801.319 68.2996V66.0699H800.276V68.2996L798.163 68.1827L798.179 68.1588V66.0433C799.673 66.0885 800.926 66.062 800.926 66.062C800.926 66.062 802.179 66.0885 803.673 66.0433V68.1588L803.678 68.1667L801.319 68.2996ZM800.926 65.0414C799.426 65.0653 798.21 65.0282 797.227 64.9538C798.205 65.0175 799.418 65.0521 800.926 65.0414C802.438 65.0521 803.654 65.0175 804.637 64.9538C803.652 65.0255 802.433 65.0627 800.926 65.0414ZM804.857 68.103L804.213 68.1402V66.0274C804.425 66.0194 804.643 66.0088 804.857 65.9955V68.1056V68.103Z" fill="url(#paint6_linear_111_665)"/>
<path d="M620.795 173.402C620.795 173.402 607.535 182.121 576.834 176.351C571.93 175.428 548.447 179.02 555.655 186.867C557.604 188.987 566.513 193.536 556.902 196.998C547.291 200.46 534.832 197.896 528.248 199.946C521.662 201.999 519.172 204.818 504.4 205.203C504.4 205.203 516.147 207.896 528.606 205.203C541.066 202.51 555.837 206.486 569.364 201.227C569.364 201.227 578.796 199.174 573.28 191.994C567.762 184.814 564.025 183.531 575.595 182.377C587.163 181.223 590.011 184.941 603.715 181.863C617.418 178.786 620.8 173.4 620.8 173.4L620.795 173.402Z" fill="#FBF8F3"/>
<path d="M633.207 198.938C633.207 198.938 679.218 183.795 683.243 174.236C687.268 164.676 687.772 156.125 714.938 140.025C742.107 123.925 732.043 122.92 744.622 110.845C757.201 98.7701 753.678 110.341 760.218 117.889C766.758 125.435 768.772 101.285 774.304 115.878C779.839 130.468 787.384 144.557 792.415 147.072C797.445 149.587 788.894 166.191 797.445 173.737C805.999 181.283 801.47 197.887 808.515 200.402L633.204 198.943L633.207 198.938Z" fill="url(#paint7_linear_111_665)"/>
<path d="M673.757 177.932C673.757 177.932 691.831 169.456 698.47 160.787C705.108 152.121 705.108 144.207 713.225 143.076C721.339 141.945 726.135 137.424 735.356 130.455C744.576 123.485 754.168 134.41 761.546 145.527C768.923 156.642 771.593 157.642 782.479 157.445C785.061 157.397 778.606 163.049 782.572 164.369C788.576 166.367 793.268 157.586 797.696 176.804L805.81 203.181H646.092C646.092 203.181 666.014 182.016 673.757 177.935V177.932Z" fill="url(#paint8_linear_111_665)"/>
<path d="M673.757 186.959C673.757 186.959 691.831 180.501 698.47 173.9C705.108 167.298 705.108 161.27 713.225 160.408C721.339 159.547 726.135 156.103 735.356 150.793C744.576 145.482 754.168 153.807 761.546 162.276C768.923 170.744 771.593 171.504 782.479 171.352C785.061 171.318 778.606 175.623 782.572 176.626C788.576 178.146 793.268 171.459 797.696 186.097L805.81 206.19H646.092C646.092 206.19 666.014 190.066 673.757 186.959Z" fill="url(#paint9_linear_111_665)"/>
<path d="M684.237 194.547C682.938 193.144 692.526 175.425 709.664 184.665C715.214 187.658 712.672 171.374 718.138 170.792C723.603 170.211 729.759 164.66 735.971 161.083C742.184 157.507 747.179 171.131 752.149 176.834C757.118 182.536 758.915 183.049 766.248 182.947C767.987 182.923 763.639 185.823 766.309 186.5C770.353 187.524 765.448 191.883 768.43 201.744L781.961 206.411H662.855C662.855 206.411 679.022 196.638 684.237 194.545V194.547Z" fill="url(#paint10_linear_111_665)"/>
<path d="M613.155 84.9748L612.125 86.0737L611.096 84.9748V78.1625H613.155V84.9748Z" fill="url(#paint11_linear_111_665)"/>
<path d="M616.308 84.9159L615.59 86.0121L614.87 84.9159V78.101H616.308V84.9159Z" fill="url(#paint12_linear_111_665)"/>
<path d="M632.367 84.9159L631.647 86.0121L630.93 84.9159V78.101H632.367V84.9159Z" fill="url(#paint13_linear_111_665)"/>
<path d="M636.142 84.9748L635.113 86.0737L634.083 84.9748V78.1625H636.142V84.9748Z" fill="url(#paint14_linear_111_665)"/>
<path d="M623.619 66.8822C623.619 66.8822 611.739 79.4825 602.953 73.9906C602.953 73.9906 603.524 76.8819 623.619 76.7326C643.699 76.8819 644.286 73.9906 644.286 73.9906C635.499 79.4825 623.619 66.8822 623.619 66.8822Z" fill="url(#paint15_linear_111_665)"/>
<path d="M623.619 76.7328C605.359 77.0049 602.953 73.9908 602.953 73.9908C602.961 76.9249 605.975 78.3839 605.975 78.3839C611.617 79.6748 623.619 79.4134 623.619 79.4134C623.619 79.4134 635.622 79.6775 641.263 78.3839C641.263 78.3839 644.278 76.9249 644.286 73.9908C644.286 73.9908 641.877 77.0049 623.619 76.7328Z" fill="url(#paint16_linear_111_665)"/>
<path d="M624.664 85.3293L623.275 86.2788L621.888 85.3293V79.4346H624.664V85.3293Z" fill="url(#paint17_linear_111_665)"/>
<path d="M623.961 64.7377H623.275V67.1622H623.961V64.7377Z" fill="url(#paint18_linear_111_665)"/>
<path d="M623.619 63.5081L622.704 64.4229L623.619 65.4605L624.534 64.4229L623.619 63.5081Z" fill="url(#paint19_linear_111_665)"/>
<path d="M639.927 97.8575H637.115V124.912H639.927V97.8575Z" fill="url(#paint20_linear_111_665)"/>
<path d="M608.925 97.8575H606.113V124.912H608.925V97.8575Z" fill="url(#paint21_linear_111_665)"/>
<path d="M610.453 97.8575V124.912H612.539L613.006 108.113C613.312 103.8 617.743 100.375 623.181 100.375C628.62 100.375 633.05 103.8 633.357 108.113L633.912 124.912H635.998L636.104 108.113V97.8575H610.456H610.453Z" fill="url(#paint22_linear_111_665)"/>
<path d="M640.375 84.4142L623.233 85.3611L606.09 84.4142C606.09 84.4142 604.737 91.1091 591.348 90.8477C591.348 90.8477 595.21 96.8571 606.09 96.9105L623.19 97.8547V97.8601H623.28V97.8547L640.38 96.9105C651.26 96.8571 655.123 90.8477 655.123 90.8477C641.73 91.1118 640.38 84.4142 640.38 84.4142H640.375Z" fill="url(#paint23_linear_111_665)"/>
<path d="M654.747 91.4695C653.48 93.0352 647.876 96.8894 623.23 97.8123C598.584 96.8921 592.98 93.0379 591.713 91.4695C596.946 100.136 621.528 100.341 623.184 100.344H623.275C624.931 100.341 649.513 100.136 654.747 91.4695Z" fill="url(#paint24_linear_111_665)"/>
<path d="M623.854 77.2048C605.593 77.4768 603.188 74.4628 603.188 74.4628C603.196 77.3968 606.21 78.8558 606.21 78.8558C611.851 80.1468 623.854 79.8853 623.854 79.8853C623.854 79.8853 635.857 80.1494 641.498 78.8558C641.498 78.8558 644.512 77.3968 644.52 74.4628C644.52 74.4628 642.111 77.4768 623.854 77.2048Z" fill="url(#paint25_linear_111_665)"/>
<path d="M606.231 84.2811C606.231 84.2811 623.656 85.6948 640.372 84.2811L640.844 84.988C640.844 84.988 626.481 86.8711 605.759 84.9506L606.231 84.2838V84.2811Z" fill="url(#paint26_linear_111_665)"/>
<path d="M687.114 51.524C687.311 51.3447 687.4 51.2081 687.4 51.2081C684.632 51.2616 684.352 49.8884 684.352 49.8884L683.459 49.9366V48.7963C683.855 48.7641 684.228 48.7187 684.516 48.6518C684.516 48.6518 685.139 48.3519 685.142 47.7496C683.488 48.7749 681.303 46.7244 680.928 46.3496H680.942V45.9213L681.06 45.7875L680.872 45.6001L680.683 45.7875L680.802 45.9213V46.3496H680.815C680.437 46.7244 678.255 48.7749 676.601 47.7496C676.601 48.3519 677.227 48.6518 677.227 48.6518C677.518 48.7187 677.891 48.7641 678.284 48.7963V49.9446L677.249 49.8884C677.249 49.8884 676.973 51.2349 674.278 51.2081C674.278 51.2054 674.276 51.2027 674.273 51.1974C674.273 51.1974 674.273 51.2001 674.273 51.2081C674.249 51.2081 674.224 51.2081 674.2 51.2081C674.2 51.2081 674.289 51.342 674.486 51.524C674.386 51.4517 674.319 51.3901 674.278 51.3366C674.75 52.1129 675.986 52.5572 677.254 52.8142V58.1974H677.834V52.9187C677.939 52.9347 678.044 52.9508 678.15 52.9668V58.1974H678.581L678.678 54.7523C678.74 53.8662 679.658 53.1649 680.783 53.1649C681.908 53.1649 682.822 53.8662 682.887 54.7523L683 58.1974H683.432L683.453 54.7523V52.9668C683.524 52.9561 683.594 52.9481 683.664 52.9373V58.2001H684.244V52.8383C685.55 52.5867 686.842 52.1397 687.325 51.3419C687.282 51.3928 687.217 51.4571 687.117 51.5294L687.114 51.524ZM679.062 49.9902L678.708 49.9714V48.8284C678.827 48.8364 678.946 48.8418 679.062 48.8445V49.9902ZM680.799 52.6403V50.2739V52.6403ZM681.085 50.0704V48.8712H680.51V50.0704L679.35 50.0062L679.358 49.9928V48.8551C680.181 48.8792 680.869 48.8659 680.869 48.8659C680.869 48.8659 681.557 48.8819 682.38 48.8551V49.9982L681.085 50.0704ZM680.869 48.3172C680.043 48.3305 679.377 48.3091 678.835 48.2716C679.374 48.3064 680.041 48.3252 680.869 48.3172C681.7 48.3225 682.369 48.3037 682.908 48.2689C682.366 48.3091 681.697 48.3279 680.869 48.3172ZM683.033 49.9634L682.679 49.9821V48.8445C682.795 48.8391 682.914 48.8338 683.033 48.8284V49.9634Z" fill="url(#paint27_linear_111_665)"/>
<path d="M70.4611 44.2092C70.4178 44.1056 70.3784 44.006 70.339 43.9103C69.5824 47.8596 69.019 52.622 69.086 58.0179C69.1214 60.8235 69.3264 63.4258 69.6219 65.797C68.6132 64.4062 67.2735 62.2582 66.2964 59.3889C65.0197 55.6468 65 52.5582 65 50.8764C65 43.2647 67.9906 36.3584 72.8489 31.2932C69.6337 35.3581 70.071 41.5232 70.4611 44.2092V44.2092Z" fill="white"/>
<path d="M83.2121 56.7507C81.439 56.0493 78.8267 54.7621 76.2379 52.4108C72.9912 49.4578 71.3007 46.2138 70.4615 44.2093C70.0753 41.5232 69.634 35.3542 72.8493 31.2893C73.1448 30.9784 73.4482 30.6795 73.7595 30.3846C74.0865 30.0738 74.4175 29.7709 74.7564 29.48C74.3821 32.4011 74.1298 37.2949 75.702 43.0057C77.5894 49.8563 81.1553 54.4592 83.2121 56.7507V56.7507Z" fill="white"/>
<path d="M104.671 63.2625C101.495 65.6735 98.3229 66.7415 96.4434 67.2397C99.2331 65.3746 105.475 60.6083 108.603 52.0481C109.856 48.6169 110.286 45.4645 110.392 43.0057C110.392 43.0057 113.253 24.7376 92.6885 23.4703C93.5908 23.2431 94.8989 23 96.4868 23C97.1409 23 99.2056 23.0439 101.987 24.0123C103.035 24.3789 109.545 26.6266 112.926 31.2454C119.151 39.7657 114.395 55.8819 104.671 63.2585V63.2625Z" fill="white"/>
<path d="M110.396 43.0056C108.721 46.2855 106.688 49.0711 104.359 51.4224L104.348 51.4343C104.348 51.4343 104.348 51.4264 104.351 51.4224C105.348 49.0711 109.111 40.1961 105.746 32.8793C102.433 25.678 93.9493 23.7413 92.6924 23.4742C113.257 24.7415 110.396 43.0096 110.396 43.0096V43.0056Z" fill="white"/>
<path d="M97.6962 63.9838C96.6284 64.6493 95.7891 64.729 93.9411 65.9724C92.566 66.901 91.5611 67.8415 90.9346 68.4871C90.9346 68.4911 90.9346 68.4991 90.9346 68.503C86.167 68.3038 81.5647 66.893 78.7199 65.8289C77.9318 65.3587 76.939 65.1435 75.9184 64.6732C75.9066 64.6692 75.8987 64.6653 75.8869 64.6573C75.8711 64.6493 75.8594 64.6453 75.8475 64.6374C75.8318 64.6294 75.8239 64.6254 75.8239 64.6254C75.1777 64.3185 74.5275 63.9041 73.9128 63.2545C73.31 62.6129 72.8963 61.9035 72.8411 61.8079C72.8411 61.8079 72.2579 60.7917 71.9466 59.4566C71.5841 57.8984 71.2492 54.1443 71.261 49.1469C71.6078 50.0516 74.9412 58.3288 83.062 60.178C84.1968 60.437 87.3609 61.1583 90.722 60.0106C91.5691 59.7196 92.4241 59.3131 93.2634 58.7472C93.2673 58.7472 93.2752 58.7393 93.2831 58.7353C93.291 58.7353 93.2988 58.7273 93.3067 58.7194H93.3106C93.4249 58.6436 93.5392 58.5639 93.6535 58.4803C98.5669 54.8856 98.626 48.7325 98.6181 48.059C99.221 48.6607 101.688 51.2591 101.81 55.2921C101.912 58.6994 100.32 62.3419 97.6962 63.9719V63.9838Z" fill="white"/>
<path d="M102.578 67.2875C97.0537 70.5035 89.2284 73.5682 82.8531 70.3162C81.9823 69.8739 81.0878 69.2841 80.1974 68.491C80.1737 67.702 79.9452 67.1879 79.7758 66.893C79.5039 66.4147 79.1374 66.0879 78.7158 65.8329C81.5607 66.8969 86.1629 68.3077 90.9306 68.507C90.9306 68.507 90.9306 68.507 90.9345 68.507C93.279 68.8258 97.4478 69.0609 102.196 67.423C102.326 67.3791 102.452 67.3313 102.578 67.2875Z" fill="white"/>
<path d="M114.714 68.8697C111.274 74.6362 104.985 76.5492 101.124 77.7208C97.1914 78.9164 94.0431 79 92.8098 79C91.4543 79 88.2746 78.9004 84.4132 77.6969C83.5227 77.4179 82.6755 77.1549 81.8835 76.8839C79.0544 75.9195 76.9385 74.8833 75.9101 72.8509C75.4925 72.0259 75.2206 70.9738 74.1212 69.7743C74.1212 69.7743 73.7626 69.3838 71.6191 67.6024C72.6554 66.9369 73.739 66.6898 74.7753 66.6898C77.6792 66.6898 80.201 68.6146 80.201 68.6146C80.201 68.5708 80.201 68.5309 80.201 68.4911C81.0915 69.2841 81.9899 69.8739 82.8567 70.3163C89.232 73.5682 97.0574 70.5036 102.582 67.2875C109.942 64.5975 113.831 59.0581 115.072 57.1173C115.47 57.5557 115.99 58.2332 116.38 59.1498C118.094 63.2067 115.403 67.7219 114.714 68.8736V68.8697Z" fill="white"/>
<path d="M119.694 57.2926C119.285 59.0381 118.725 60.4449 118.264 61.4531C118.229 60.668 118.063 59.2055 117.192 57.6552C116.55 56.5115 115.77 55.7543 115.226 55.304C113.319 57.2328 111.412 59.1616 109.505 61.0905C112.121 57.6672 113.713 54.5189 114.69 52.2274C115.246 50.9282 115.943 49.2664 116.479 46.9829C117.346 43.2807 117.279 40.0925 117.07 37.9564C117.85 39.4549 118.504 41.033 119.009 42.6789C120.179 46.4847 120.262 50.8605 120.262 51.0558C120.281 52.7614 120.297 54.7461 119.698 57.2966L119.694 57.2926Z" fill="white"/>
<path d="M85.544 57.0694C86.3242 56.2007 91.1825 50.6453 90.3708 44.4085C90.2486 43.456 89.9925 41.4793 88.5819 39.5266C87.2146 37.6336 85.5007 36.7728 84.4683 36.2707C82.183 35.1588 80.0513 34.9914 78.7471 35.0034C78.8022 34.9476 78.9323 34.8081 79.1372 34.6328C79.1411 34.6248 79.149 34.6168 79.1569 34.6089C80.5596 34.1306 82.6755 33.6883 85.0948 34.1904C88.3692 34.8719 91.2298 37.0876 92.861 39.9649C93.5585 41.1964 94.0313 42.5513 94.2165 43.9581C95.0597 50.3942 89.5867 55.7065 85.544 57.0694Z" fill="white"/>
<path d="M92.8614 39.965C91.2301 37.0877 88.3695 34.8719 85.0952 34.1905C82.6759 33.6843 80.56 34.1307 79.1572 34.6089C79.7483 33.8637 81.5371 31.903 83.7476 32.2378C86.4742 32.6442 87.3963 33.3456 88.0662 32.8834C88.7321 32.4211 86.3521 32.2019 85.9699 32.5645C86.0093 32.5247 86.3127 32.2138 86.7304 31.9628C87.2859 31.632 87.8533 31.7396 88.267 31.7874C89.0038 31.8751 89.5516 32.1421 89.8628 32.3095C91.1001 32.971 92.8653 33.9155 93.3893 35.7806C93.4878 36.737 93.4682 38.1996 92.8614 39.965V39.965Z" fill="white"/>
<path d="M102.712 42.4198C102.712 42.4198 100.182 39.0484 96.7067 41.8181C96.7067 41.8181 100.923 41.6946 101.277 44.2291C101.159 44.1096 100.399 43.3723 99.323 43.4839C98.4483 43.5716 97.9085 44.1693 97.6997 44.4124C97.0101 45.2055 96.9668 46.0782 96.8052 46.943C96.5176 48.4813 95.9502 49.5335 95.1976 50.9203C93.8618 53.3871 91.7933 54.8178 90.7255 55.4435C88.6726 56.647 86.7182 56.9738 85.54 57.0694C89.5827 55.7065 95.0557 50.3902 94.2125 43.9581C94.0273 42.5514 93.5545 41.1964 92.8571 39.965C93.4639 38.1995 93.4876 36.7369 93.3851 35.7805C93.3851 35.7805 93.3851 35.7885 93.3851 35.7925C93.4048 35.8642 93.4324 35.9638 93.46 36.0794C93.6215 35.4577 93.4914 34.7483 93.4008 34.286C92.9516 31.8949 90.9815 30.4643 90.1817 29.9462C90.8476 29.9263 96.4742 29.8426 100.119 34.4375C102.716 37.7093 102.731 41.3678 102.696 42.4238L102.712 42.4198Z" fill="white"/>
<path d="M127.886 68.1881C127.886 68.8377 127.366 69.3637 126.724 69.3637H124.51V69.292C124.51 68.5786 124.849 67.9131 125.412 67.4787L125.42 67.4707C125.692 67.2635 125.924 67.0602 126.117 66.8689C126.31 66.6777 126.46 66.5023 126.567 66.3429C126.673 66.1835 126.724 66.056 126.724 65.9604C126.724 65.8129 126.673 65.6854 126.574 65.5857C126.472 65.4821 126.35 65.4343 126.204 65.4343C126.058 65.4343 125.932 65.4861 125.834 65.5897C125.731 65.6933 125.684 65.8208 125.684 65.9723H125.077C124.738 65.9723 124.51 65.6216 124.648 65.3068C124.738 65.0995 124.86 64.9202 125.014 64.7648C125.168 64.6094 125.345 64.4858 125.55 64.3942C125.755 64.3025 125.972 64.2587 126.208 64.2587C126.444 64.2587 126.661 64.3025 126.862 64.3942C127.067 64.4858 127.244 64.6094 127.398 64.7648C127.552 64.9202 127.67 65.0995 127.76 65.3068C127.851 65.514 127.894 65.7332 127.894 65.9723C127.894 66.6458 127.398 67.387 126.409 68.1921H127.894L127.886 68.1881Z" fill="white"/>
<path d="M130.759 64.2507C131.106 64.2507 131.433 64.3185 131.74 64.454C132.047 64.5895 132.315 64.7688 132.544 65C132.772 65.2311 132.954 65.4981 133.088 65.809C133.222 66.1198 133.289 66.4506 133.289 66.8053C133.289 67.1599 133.222 67.4907 133.088 67.8016C132.954 68.1124 132.772 68.3834 132.544 68.6105C132.315 68.8417 132.047 69.021 131.74 69.1565C131.433 69.292 131.106 69.3597 130.759 69.3597C130.412 69.3597 130.085 69.292 129.778 69.1565C129.471 69.021 129.203 68.8417 128.978 68.6105C128.749 68.3794 128.572 68.1124 128.438 67.8016C128.304 67.4907 128.237 67.1599 128.237 66.8053C128.237 66.4506 128.304 66.1198 128.438 65.809C128.572 65.4981 128.749 65.2271 128.978 65C129.207 64.7688 129.471 64.5895 129.778 64.454C130.085 64.3185 130.412 64.2507 130.759 64.2507ZM130.759 68.1841C130.948 68.1841 131.125 68.1482 131.287 68.0765C131.453 68.0048 131.598 67.9052 131.72 67.7816C131.843 67.6581 131.941 67.5106 132.012 67.3432C132.083 67.1759 132.118 66.9966 132.118 66.8092C132.118 66.6219 132.083 66.4386 132.012 66.2752C131.941 66.1078 131.843 65.9604 131.72 65.8368C131.598 65.7133 131.453 65.6137 131.287 65.5419C131.122 65.4702 130.944 65.4343 130.759 65.4343C130.574 65.4343 130.393 65.4702 130.231 65.5419C130.066 65.6137 129.92 65.7133 129.798 65.8368C129.675 65.9604 129.577 66.1078 129.506 66.2752C129.435 66.4426 129.4 66.6219 129.4 66.8092C129.4 66.9966 129.435 67.1799 129.506 67.3432C129.577 67.5106 129.675 67.6581 129.798 67.7816C129.92 67.9052 130.066 68.0048 130.231 68.0765C130.396 68.1482 130.574 68.1841 130.759 68.1841Z" fill="white"/>
<path d="M137.02 68.1881C137.02 68.8377 136.5 69.3637 135.858 69.3637H133.644V69.292C133.644 68.5786 133.982 67.9131 134.546 67.4787L134.554 67.4707C134.826 67.2635 135.058 67.0602 135.251 66.8689C135.444 66.6777 135.594 66.5023 135.7 66.3429C135.807 66.1835 135.858 66.056 135.858 65.9604C135.858 65.8129 135.807 65.6854 135.708 65.5857C135.606 65.4821 135.484 65.4343 135.338 65.4343C135.192 65.4343 135.066 65.4861 134.967 65.5897C134.865 65.6933 134.818 65.8208 134.818 65.9723H134.219C133.884 65.9723 133.647 65.6256 133.777 65.3148V65.3068C133.868 65.0995 133.99 64.9202 134.144 64.7648C134.298 64.6094 134.475 64.4858 134.68 64.3942C134.885 64.3025 135.101 64.2587 135.338 64.2587C135.574 64.2587 135.791 64.3025 135.992 64.3942C136.197 64.4858 136.374 64.6094 136.528 64.7648C136.682 64.9202 136.8 65.0995 136.89 65.3068C136.981 65.514 137.024 65.7332 137.024 65.9723C137.024 66.6458 136.528 67.387 135.539 68.1921H137.024L137.02 68.1881Z" fill="white"/>
<path d="M141.091 68.1881C141.091 68.8377 140.57 69.3637 139.928 69.3637H137.714V69.292C137.714 68.5786 138.053 67.9131 138.616 67.4787L138.624 67.4707C138.896 67.2635 139.128 67.0602 139.321 66.8689C139.514 66.6777 139.664 66.5023 139.771 66.3429C139.877 66.1835 139.928 66.056 139.928 65.9604C139.928 65.8129 139.877 65.6854 139.779 65.5857C139.676 65.4821 139.554 65.4343 139.408 65.4343C139.262 65.4343 139.136 65.4861 139.038 65.5897C138.935 65.6933 138.888 65.8208 138.888 65.9723H138.289C137.954 65.9723 137.718 65.6256 137.848 65.3148V65.3068C137.938 65.0995 138.061 64.9202 138.214 64.7648C138.368 64.6094 138.545 64.4858 138.75 64.3942C138.955 64.3025 139.172 64.2587 139.408 64.2587C139.645 64.2587 139.861 64.3025 140.062 64.3942C140.267 64.4858 140.444 64.6094 140.598 64.7648C140.752 64.9202 140.87 65.0995 140.961 65.3068C141.051 65.514 141.095 65.7332 141.095 65.9723C141.095 66.6458 140.598 67.387 139.609 68.1921H141.095L141.091 68.1881Z" fill="white"/>
<path d="M155.831 50.3663C156.544 50.3663 157.214 50.5058 157.84 50.7808C158.467 51.0557 159.018 51.4304 159.483 51.8966C159.948 52.3629 160.322 52.9208 160.594 53.5545C160.866 54.1921 161 54.8696 161 55.5909C161 56.3122 160.866 56.9897 160.594 57.6274C160.322 58.265 159.952 58.815 159.483 59.2852C159.014 59.7555 158.467 60.1261 157.84 60.401C157.214 60.676 156.544 60.8155 155.831 60.8155C155.117 60.8155 154.448 60.68 153.821 60.401C153.195 60.1261 152.647 59.7515 152.182 59.2852C151.717 58.815 151.351 58.261 151.079 57.6274C150.807 56.9897 150.673 56.3122 150.673 55.5909C150.673 54.8696 150.807 54.1921 151.079 53.5545C151.351 52.9169 151.717 52.3669 152.182 51.8966C152.647 51.4264 153.191 51.0557 153.821 50.7808C154.448 50.5058 155.117 50.3663 155.831 50.3663ZM155.839 58.4084C156.225 58.4084 156.583 58.3367 156.922 58.1893C157.261 58.0418 157.556 57.8386 157.809 57.5835C158.061 57.3285 158.262 57.0296 158.407 56.6869C158.553 56.3441 158.624 55.9815 158.624 55.5909C158.624 55.2004 158.553 54.8377 158.407 54.495C158.262 54.1523 158.061 53.8534 157.809 53.5983C157.556 53.3433 157.261 53.14 156.922 52.9926C156.583 52.8451 156.225 52.7734 155.839 52.7734C155.452 52.7734 155.094 52.8451 154.755 52.9926C154.416 53.14 154.121 53.3433 153.868 53.5983C153.616 53.8534 153.415 54.1523 153.27 54.495C153.124 54.8377 153.053 55.2004 153.053 55.5909C153.053 55.9815 153.124 56.3441 153.27 56.6869C153.415 57.0296 153.616 57.3285 153.868 57.5835C154.121 57.8386 154.416 58.0418 154.755 58.1893C155.094 58.3367 155.452 58.4084 155.839 58.4084Z" fill="white"/>
<path d="M127.481 55.7742H127.473V57.8305H127.481V55.7742Z" fill="white"/>
<path d="M127.481 50.8087H127.473V52.7774H127.481V50.8087Z" fill="white"/>
<path d="M132.768 58.3048V57.8306H127.48V60.8274H130.274C131.653 60.8274 132.768 59.6996 132.768 58.3048Z" fill="white"/>
<path d="M131.768 53.8175V52.7773H127.48V55.7742H129.833C130.901 55.7742 131.768 54.8975 131.768 53.8175V53.8175Z" fill="white"/>
<path d="M127.473 50.8086H127.481V47.8237L124.51 47.8317V58.9942C124.51 60.0064 125.321 60.8314 126.326 60.8314H127.481V57.8345H127.473V55.7782H127.481V52.7813H127.473V50.8126V50.8086Z" fill="white"/>
<path d="M132.768 50.8087V49.5334C132.768 48.5849 132.008 47.8158 131.066 47.8158L127.48 47.8238V50.8087H132.768Z" fill="white"/>
<path d="M142.375 50.4022C140.661 50.4022 139.073 51.3148 138.194 52.8053L137.981 53.164L139.376 55.4355L142.379 50.4062L142.375 50.4022Z" fill="white"/>
<path d="M133.395 60.8513C135.101 60.8513 136.685 59.9507 137.571 58.4722L137.985 57.7788L136.582 55.4833L133.395 60.8513Z" fill="white"/>
<path d="M139.361 55.4554L139.377 55.4315L137.982 53.16V53.1679L137.741 52.7773C136.839 51.2988 135.243 50.3982 133.525 50.3982L136.599 55.4674L136.591 55.4833L137.994 57.7788V57.7708L138.415 58.4562C139.318 59.9427 140.921 60.8514 142.651 60.8514L139.369 55.4554H139.361Z" fill="white"/>
<path d="M145.704 56.7545C145.704 56.7545 145.72 56.7545 145.728 56.7545V52.7853C145.728 52.7853 145.712 52.7853 145.704 52.7853V56.7585V56.7545Z" fill="white"/>
<path d="M145.704 57.472V53.0564C145.704 53.0564 145.72 53.0564 145.728 53.0564V50.3783H143.328V61.9991H144.061C144.971 61.9991 145.708 61.1702 145.708 60.146C145.708 60.146 145.724 60.146 145.732 60.146V57.468C145.732 57.468 145.716 57.468 145.708 57.468L145.704 57.472Z" fill="white"/>
<path d="M149.636 53.0922C149.416 52.5661 149.112 52.1038 148.722 51.7053C148.332 51.3068 147.879 50.988 147.363 50.7528C146.855 50.5177 146.307 50.3942 145.724 50.3822V52.7893C145.976 52.8012 146.216 52.861 146.441 52.9647C146.669 53.0762 146.87 53.2157 147.04 53.395C147.209 53.5704 147.343 53.7776 147.442 54.0167C147.54 54.2558 147.591 54.5069 147.591 54.7739C147.591 55.0409 147.54 55.292 147.442 55.5311C147.343 55.7702 147.209 55.9775 147.04 56.1528C146.87 56.3282 146.673 56.4716 146.441 56.5832C146.216 56.6908 145.98 56.7466 145.724 56.7585V59.1656C146.307 59.1536 146.851 59.0341 147.363 58.8029C147.879 58.5718 148.332 58.253 148.722 57.8544C149.112 57.4559 149.416 56.9937 149.636 56.4676C149.857 55.9416 149.967 55.3797 149.967 54.7819C149.967 54.1841 149.857 53.6222 149.636 53.0961V53.0922Z" fill="white"/>
<path d="M128.962 44.4962C128.367 44.4962 127.804 44.3846 127.272 44.1654C126.74 43.9462 126.267 43.6314 125.853 43.2209C125.428 42.7905 125.101 42.3083 124.872 41.7703C124.644 41.2323 124.525 40.6584 124.514 40.0447V32.6362C126.003 32.6362 127.209 33.8557 127.209 35.3621V40.0248C127.209 40.499 127.386 40.9135 127.737 41.2681C128.087 41.6029 128.501 41.7663 128.982 41.7703C129.214 41.7703 129.443 41.7225 129.652 41.6268C129.86 41.5312 130.05 41.3997 130.211 41.2403C130.369 41.0808 130.495 40.8895 130.578 40.6743C130.664 40.4591 130.704 40.228 130.704 39.9809V32.6402C132.193 32.6402 133.399 33.8597 133.399 35.3661V39.965C133.411 40.5787 133.3 41.1606 133.072 41.7065C132.843 42.2565 132.528 42.7347 132.13 43.1412C131.732 43.5517 131.263 43.8745 130.727 44.1176C130.191 44.3607 129.62 44.4842 129.013 44.4962H128.966H128.962Z" fill="white"/>
<path d="M134.407 43.1093V44.3009H136.598V41.2722L137.418 42.0852C138.856 43.5079 140.783 44.3049 142.792 44.3049H142.82L137.957 39.5187L134.403 43.1133L134.407 43.1093Z" fill="white"/>
<path d="M136.598 34.6647C135.388 34.6647 134.407 35.657 134.407 36.8804V39.8295L136.598 37.6137V34.6647Z" fill="white"/>
<path d="M142.82 34.6647H139.671L136.598 37.7054V37.6097L134.407 39.8295V43.1093L137.961 39.5147L137.934 39.4907L142.82 34.6647Z" fill="white"/>
<path d="M143.285 44.3008C144.526 44.3008 145.551 43.3284 145.63 42.0771L145.736 40.3914L143.88 34.8639L143.285 44.3008V44.3008Z" fill="white"/>
<path d="M152.529 34.6647H150.275L148.238 40.6943L146.149 34.6647H143.896L143.88 34.8639L145.736 40.3914L145.748 40.2121L147.15 44.3009H149.341L150.661 40.3675L150.669 40.4512L152.541 34.8599L152.529 34.6647Z" fill="white"/>
<path d="M152.541 34.8599L150.669 40.4512L150.767 42.0891C150.842 43.3325 151.859 44.3009 153.088 44.3009L152.541 34.856V34.8599Z" fill="white"/>
</g>
<defs>
<linearGradient id="paint0_linear_111_665" x1="428" y1="282.5" x2="428" y2="-41" gradientUnits="userSpaceOnUse">
<stop stop-color="white"/>
<stop offset="0.115063" stop-color="#FFFEFD"/>
<stop offset="0.24518" stop-color="#FAF7F3"/>
<stop offset="0.451387" stop-color="#F5EFB2"/>
<stop offset="0.667018" stop-color="#CDDD91"/>
<stop offset="0.896438" stop-color="#62B497"/>
</linearGradient>
<radialGradient id="paint1_radial_111_665" cx="0" cy="0" r="1" gradientUnits="userSpaceOnUse" gradientTransform="translate(696.212 55.1972) scale(351.884 435.182)">
<stop stop-color="#FBF4ED"/>
<stop offset="0.14" stop-color="#A5D0BD"/>
<stop offset="0.34" stop-color="#FBF8F3"/>
<stop offset="0.45" stop-color="#FBEEE3"/>
<stop offset="0.58" stop-color="#BDDBCC"/>
<stop offset="0.7" stop-color="#FBF3EB"/>
<stop offset="1" stop-color="#C1DDCE"/>
</radialGradient>
<radialGradient id="paint2_radial_111_665" cx="0" cy="0" r="1" gradientUnits="userSpaceOnUse" gradientTransform="translate(602.964 140.802) scale(289.993 290)">
<stop stop-color="#FBF4ED"/>
<stop offset="0.14" stop-color="#A5D0BD"/>
<stop offset="0.34" stop-color="#FBF8F3"/>
<stop offset="0.45" stop-color="#FBEEE3"/>
<stop offset="0.58" stop-color="#BDDBCC"/>
<stop offset="0.7" stop-color="#FBF3EB"/>
<stop offset="1" stop-color="#C1DDCE"/>
</radialGradient>
<linearGradient id="paint3_linear_111_665" x1="717.284" y1="124.971" x2="720.557" y2="38.7985" gradientUnits="userSpaceOnUse">
<stop stop-color="#FBE5D6"/>
<stop offset="0.18" stop-color="#F3E2D3"/>
<stop offset="0.63" stop-color="#62B497"/>
<stop offset="1" stop-color="#4C6F62"/>
</linearGradient>
<linearGradient id="paint4_linear_111_665" x1="720.853" y1="119.284" x2="723.181" y2="57.9974" gradientUnits="userSpaceOnUse">
<stop stop-color="#FBE5D6"/>
<stop offset="0.18" stop-color="#F3E2D3"/>
<stop offset="0.63" stop-color="#62B497"/>
<stop offset="1" stop-color="#4C6F62"/>
</linearGradient>
<linearGradient id="paint5_linear_111_665" x1="718.501" y1="118.147" x2="720.443" y2="67.0021" gradientUnits="userSpaceOnUse">
<stop stop-color="#FBE5D6"/>
<stop offset="0.18" stop-color="#F3E2D3"/>
<stop offset="0.63" stop-color="#62B497"/>
<stop offset="1" stop-color="#4C6F62"/>
</linearGradient>
<linearGradient id="paint6_linear_111_665" x1="800.11" y1="83.7056" x2="801.369" y2="60.0231" gradientUnits="userSpaceOnUse">
<stop stop-color="#F3E2D3"/>
<stop offset="0.37" stop-color="#62B497"/>
</linearGradient>
<linearGradient id="paint7_linear_111_665" x1="720.862" y1="200.399" x2="720.862" y2="105.606" gradientUnits="userSpaceOnUse">
<stop stop-color="#FBF8F3" stop-opacity="0.4"/>
<stop offset="0.15" stop-color="#FBE5D6"/>
<stop offset="0.41" stop-color="#62B497"/>
<stop offset="1" stop-color="#4C6F62"/>
</linearGradient>
<linearGradient id="paint8_linear_111_665" x1="725.572" y1="218.561" x2="727.778" y2="128.948" gradientUnits="userSpaceOnUse">
<stop stop-color="#FBF8F3" stop-opacity="0.5"/>
<stop offset="0.1" stop-color="#FBE5D6"/>
<stop offset="0.52" stop-color="#62B497"/>
<stop offset="0.85" stop-color="#4C6F62"/>
</linearGradient>
<linearGradient id="paint9_linear_111_665" x1="725.647" y1="218.473" x2="727.346" y2="149.558" gradientUnits="userSpaceOnUse">
<stop stop-color="#FBF8F3" stop-opacity="0.4"/>
<stop offset="0.02" stop-color="#FBF5EE" stop-opacity="0.49"/>
<stop offset="0.06" stop-color="#FBF0E7" stop-opacity="0.65"/>
<stop offset="0.09" stop-color="#FBECE0" stop-opacity="0.77"/>
<stop offset="0.13" stop-color="#FBE9DC" stop-opacity="0.87"/>
<stop offset="0.17" stop-color="#FBE6D8" stop-opacity="0.94"/>
<stop offset="0.22" stop-color="#FBE5D6" stop-opacity="0.99"/>
<stop offset="0.27" stop-color="#FBE5D6"/>
<stop offset="0.32" stop-color="#EBE0CF"/>
<stop offset="0.42" stop-color="#C4D3BF"/>
<stop offset="0.57" stop-color="#85BFA5"/>
<stop offset="0.64" stop-color="#62B497"/>
<stop offset="1" stop-color="#4C6F62"/>
</linearGradient>
<linearGradient id="paint10_linear_111_665" x1="722.168" y1="216.171" x2="723.531" y2="160.766" gradientUnits="userSpaceOnUse">
<stop stop-color="#FBF8F3" stop-opacity="0.3"/>
<stop offset="0.03" stop-color="#FBF5EE" stop-opacity="0.41"/>
<stop offset="0.2" stop-color="#FBE5D6"/>
<stop offset="0.23" stop-color="#DCDBC9"/>
<stop offset="0.27" stop-color="#B7CFBA"/>
<stop offset="0.32" stop-color="#98C5AD"/>
<stop offset="0.37" stop-color="#80BDA3"/>
<stop offset="0.42" stop-color="#6FB89C"/>
<stop offset="0.47" stop-color="#65B598"/>
<stop offset="0.54" stop-color="#62B497"/>
<stop offset="1" stop-color="#4C6F62"/>
</linearGradient>
<linearGradient id="paint11_linear_111_665" x1="612.125" y1="86.0737" x2="612.125" y2="78.1625" gradientUnits="userSpaceOnUse">
<stop stop-color="#F4EDB1"/>
<stop offset="0.14" stop-color="#D9BDAC"/>
<stop offset="0.27" stop-color="#C498A8"/>
<stop offset="0.39" stop-color="#B57DA5"/>
<stop offset="0.5" stop-color="#AC6CA3"/>
<stop offset="0.58" stop-color="#A967A3"/>
<stop offset="1" stop-color="#E63B2B"/>
</linearGradient>
<linearGradient id="paint12_linear_111_665" x1="615.59" y1="86.0121" x2="615.59" y2="78.101" gradientUnits="userSpaceOnUse">
<stop stop-color="#F4EDB1"/>
<stop offset="0.14" stop-color="#D9BDAC"/>
<stop offset="0.27" stop-color="#C498A8"/>
<stop offset="0.39" stop-color="#B57DA5"/>
<stop offset="0.5" stop-color="#AC6CA3"/>
<stop offset="0.58" stop-color="#A967A3"/>
<stop offset="1" stop-color="#E63B2B"/>
</linearGradient>
<linearGradient id="paint13_linear_111_665" x1="631.647" y1="86.0121" x2="631.647" y2="78.101" gradientUnits="userSpaceOnUse">
<stop stop-color="#F4EDB1"/>
<stop offset="0.14" stop-color="#D9BDAC"/>
<stop offset="0.27" stop-color="#C498A8"/>
<stop offset="0.39" stop-color="#B57DA5"/>
<stop offset="0.5" stop-color="#AC6CA3"/>
<stop offset="0.58" stop-color="#A967A3"/>
<stop offset="1" stop-color="#E63B2B"/>
</linearGradient>
<linearGradient id="paint14_linear_111_665" x1="635.113" y1="86.0737" x2="635.113" y2="78.1625" gradientUnits="userSpaceOnUse">
<stop stop-color="#F4EDB1"/>
<stop offset="0.14" stop-color="#D9BDAC"/>
<stop offset="0.27" stop-color="#C498A8"/>
<stop offset="0.39" stop-color="#B57DA5"/>
<stop offset="0.5" stop-color="#AC6CA3"/>
<stop offset="0.58" stop-color="#A967A3"/>
<stop offset="1" stop-color="#E63B2B"/>
</linearGradient>
<linearGradient id="paint15_linear_111_665" x1="639.868" y1="67.0582" x2="602.004" y2="83.6354" gradientUnits="userSpaceOnUse">
<stop stop-color="#F5EFB2"/>
<stop offset="0.54" stop-color="#E63B2B"/>
</linearGradient>
<linearGradient id="paint16_linear_111_665" x1="644.286" y1="76.7141" x2="602.953" y2="76.7141" gradientUnits="userSpaceOnUse">
<stop stop-color="#FBF8F3"/>
<stop offset="0.24" stop-color="#F9F4D8"/>
<stop offset="0.41" stop-color="#F5EFB2"/>
<stop offset="0.49" stop-color="#CDDD91"/>
<stop offset="0.78" stop-color="#EE7F80"/>
<stop offset="0.96" stop-color="#62B497"/>
</linearGradient>
<linearGradient id="paint17_linear_111_665" x1="623.275" y1="86.2788" x2="623.275" y2="79.4346" gradientUnits="userSpaceOnUse">
<stop stop-color="#F4EDB1"/>
<stop offset="0.14" stop-color="#D9BDAC"/>
<stop offset="0.27" stop-color="#C498A8"/>
<stop offset="0.39" stop-color="#B57DA5"/>
<stop offset="0.5" stop-color="#AC6CA3"/>
<stop offset="0.58" stop-color="#A967A3"/>
<stop offset="1" stop-color="#E63B2B"/>
</linearGradient>
<linearGradient id="paint18_linear_111_665" x1="623.62" y1="64.1082" x2="623.62" y2="66.6981" gradientUnits="userSpaceOnUse">
<stop stop-color="#E63B2B"/>
<stop offset="1" stop-color="#A967A3"/>
</linearGradient>
<linearGradient id="paint19_linear_111_665" x1="623.904" y1="64.2176" x2="622.011" y2="65.9861" gradientUnits="userSpaceOnUse">
<stop stop-color="#ED8B67"/>
<stop offset="0.06" stop-color="#EA6A4E"/>
<stop offset="0.13" stop-color="#E63B2B"/>
<stop offset="1" stop-color="#A967A3"/>
</linearGradient>
<linearGradient id="paint20_linear_111_665" x1="638.521" y1="124.915" x2="638.521" y2="97.8575" gradientUnits="userSpaceOnUse">
<stop stop-color="#F5EFB2" stop-opacity="0.3"/>
<stop offset="0.04" stop-color="#E4D2AE" stop-opacity="0.45"/>
<stop offset="0.1" stop-color="#CBA3A9" stop-opacity="0.69"/>
<stop offset="0.17" stop-color="#B882A6" stop-opacity="0.86"/>
<stop offset="0.22" stop-color="#AC6EA3" stop-opacity="0.96"/>
<stop offset="0.26" stop-color="#A967A3"/>
<stop offset="1" stop-color="#E63B2B"/>
</linearGradient>
<linearGradient id="paint21_linear_111_665" x1="607.522" y1="124.915" x2="607.522" y2="97.8575" gradientUnits="userSpaceOnUse">
<stop stop-color="#F5EFB2" stop-opacity="0.3"/>
<stop offset="0.04" stop-color="#E4D2AE" stop-opacity="0.45"/>
<stop offset="0.1" stop-color="#CBA3A9" stop-opacity="0.69"/>
<stop offset="0.17" stop-color="#B882A6" stop-opacity="0.86"/>
<stop offset="0.22" stop-color="#AC6EA3" stop-opacity="0.96"/>
<stop offset="0.26" stop-color="#A967A3"/>
<stop offset="1" stop-color="#E63B2B"/>
</linearGradient>
<linearGradient id="paint22_linear_111_665" x1="623.275" y1="124.915" x2="623.275" y2="97.8575" gradientUnits="userSpaceOnUse">
<stop stop-color="#F5EFB2" stop-opacity="0.3"/>
<stop offset="0.04" stop-color="#E4D2AE" stop-opacity="0.45"/>
<stop offset="0.1" stop-color="#CBA3A9" stop-opacity="0.69"/>
<stop offset="0.17" stop-color="#B882A6" stop-opacity="0.86"/>
<stop offset="0.22" stop-color="#AC6EA3" stop-opacity="0.96"/>
<stop offset="0.26" stop-color="#A967A3"/>
<stop offset="1" stop-color="#E63B2B"/>
</linearGradient>
<linearGradient id="paint23_linear_111_665" x1="591.345" y1="91.1358" x2="655.117" y2="91.1358" gradientUnits="userSpaceOnUse">
<stop stop-color="#F5EFB2"/>
<stop offset="0.54" stop-color="#E63B2B"/>
</linearGradient>
<linearGradient id="paint24_linear_111_665" x1="654.747" y1="95.9079" x2="591.716" y2="95.9079" gradientUnits="userSpaceOnUse">
<stop stop-color="#FBF8F3"/>
<stop offset="0.24" stop-color="#F9F4D8"/>
<stop offset="0.41" stop-color="#F5EFB2"/>
<stop offset="0.49" stop-color="#CDDD91"/>
<stop offset="0.78" stop-color="#EE7F80"/>
<stop offset="0.96" stop-color="#62B497"/>
</linearGradient>
<linearGradient id="paint25_linear_111_665" x1="603.188" y1="77.1834" x2="644.523" y2="77.1834" gradientUnits="userSpaceOnUse">
<stop stop-color="#F5EFB2"/>
<stop offset="0.3" stop-color="#E63B2B"/>
</linearGradient>
<linearGradient id="paint26_linear_111_665" x1="623.304" y1="85.8122" x2="623.304" y2="84.2811" gradientUnits="userSpaceOnUse">
<stop stop-color="#FBF8F3"/>
<stop offset="0.24" stop-color="#F9F4D8"/>
<stop offset="0.41" stop-color="#F5EFB2"/>
<stop offset="0.49" stop-color="#CDDD91"/>
<stop offset="0.78" stop-color="#EE7F80"/>
<stop offset="0.96" stop-color="#62B497"/>
</linearGradient>
<linearGradient id="paint27_linear_111_665" x1="680.421" y1="58.3607" x2="681.085" y2="45.6129" gradientUnits="userSpaceOnUse">
<stop stop-color="#F3E2D3"/>
<stop offset="0.37" stop-color="#62B497"/>
</linearGradient>
<clipPath id="clip0_111_665">
<path d="M0 20C0 8.95431 8.95431 0 20 0H836C847.046 0 856 8.9543 856 20V185C856 196.046 847.046 205 836 205H20C8.9543 205 0 196.046 0 185V20Z" fill="white"/>
</clipPath>
</defs>
</svg>
